<?xml version="1.0" encoding="UTF-8"?>
<svg xmlns="http://www.w3.org/2000/svg" xmlns:xlink="http://www.w3.org/1999/xlink"
     width="1254" height="1254" viewBox="0 0 1254 1254"
     role="img" aria-labelledby="title description">
  <title id="title">薄荷绿闪亮萌爪</title>
  <desc id="description">薄荷绿色的圆润爪印，带柔和渐变、白色高光、爱心与四角星。透明背景，全部由可编辑的矢量路径绘制。</desc>

  <defs>
    <linearGradient id="outline" x1="0" y1="0" x2="0.7" y2="1">
      <stop offset="0" stop-color="#79BD8F"/>
      <stop offset="0.58" stop-color="#7CBF92"/>
      <stop offset="1" stop-color="#78BC8D"/>
    </linearGradient>
    <radialGradient id="mint" cx="0.37" cy="0.29" r="0.88">
      <stop offset="0" stop-color="#C7F3CF"/>
      <stop offset="0.57" stop-color="#C0EFC8"/>
      <stop offset="1" stop-color="#BCEBC4"/>
    </radialGradient>
    <linearGradient id="depth" x1="0" y1="0" x2="0.83" y2="1">
      <stop offset="0" stop-color="#B6E9C0"/>
      <stop offset="0.65" stop-color="#AEE4BA"/>
      <stop offset="1" stop-color="#ABE0B7"/>
    </linearGradient>
    <linearGradient id="gloss" x1="0" y1="0" x2="1" y2="1">
      <stop offset="0" stop-color="#F4FFF6"/>
      <stop offset="1" stop-color="#EDFDF0"/>
    </linearGradient>
    <linearGradient id="heart-fill" x1="0" y1="0" x2="0.4" y2="1">
      <stop offset="0" stop-color="#E7FCEB"/>
      <stop offset="1" stop-color="#E3FBE7"/>
    </linearGradient>
    <linearGradient id="small-heart-fill" x1="0" y1="0" x2="1" y2="1">
      <stop offset="0" stop-color="#BCEFC6"/>
      <stop offset="1" stop-color="#B7EBC2"/>
    </linearGradient>
    <radialGradient id="sparkle-fill" cx="0.4" cy="0.34" r="0.8">
      <stop offset="0" stop-color="#AAE6B7"/>
      <stop offset="1" stop-color="#9ADCAA"/>
    </radialGradient>

    <path id="upper-left-pad" d="M 488.3,228.7
      C 557.4,228.7 609.4,306.3 612.6,387.6
      C 615.9,469.2 563.1,532.4 490.9,532.4
      C 416.6,532.4 363.1,475.1 362.8,397.0
      C 362.4,311.9 413.8,228.7 488.3,228.7 Z"/>
    <path id="upper-right-pad" d="M 765.3,228.7
      C 837.1,228.7 887.7,307.4 888.5,387.6
      C 889.3,469.3 839.3,532.4 766.6,532.4
      C 692.7,532.4 638.9,476.6 638.9,400.6
      C 638.9,316.6 692.7,228.7 765.3,228.7 Z"/>
    <path id="lower-left-pad" d="M 275.6,443.0
      C 320.9,443.0 361.9,480.3 387.8,530.8
      C 415.0,583.9 412.5,630.1 383.6,668.9
      C 362.0,698.0 329.9,720.0 291.8,720.0
      C 248.0,720.0 211.3,698.4 190.2,660.8
      C 163.4,613.1 164.5,558.0 180.7,520.4
      C 200.0,475.6 237.1,443.0 275.6,443.0 Z"/>
    <path id="lower-right-pad" d="M 976.2,443.0
      C 1034.4,443.0 1079.3,496.1 1080.0,567.9
      C 1081.0,651.7 1038.9,719.8 969.0,719.8
      C 899.6,721.5 845.7,671.0 845.7,601.7
      C 845.7,542.9 912.8,443.0 976.2,443.0 Z"/>
    <path id="main-pad" d="M 624.6,545.7
      C 555.8,545.7 501.7,584.0 462.6,645.9
      C 441.3,679.5 422.6,696.4 388.9,724.8
      C 344.8,762.0 319.5,806.2 319.5,858.6
      C 319.5,942.1 372.7,1007.8 455.5,1007.8
      C 520.0,1007.8 565.0,969.0 624.6,969.0
      C 685.1,969.0 730.7,1007.8 794.8,1007.8
      C 879.9,1007.8 930.5,943.2 930.5,858.6
      C 930.5,807.1 905.5,761.8 861.7,725.2
      C 829.2,698.1 809.0,681.6 789.3,648.9
      C 751.5,586.4 694.7,545.7 624.6,545.7 Z"/>
  </defs>

  <!-- Each pad is editable independently: depth, light surface, outline, gloss. -->
  <g id="paw" stroke-linecap="round" stroke-linejoin="round">
    <g id="upper-left">
      <use xlink:href="#upper-left-pad" fill="url(#depth)"/>
      <path fill="url(#mint)" d="M 488.4,239.9
        C 512.2,239.9 534.0,250.5 551.6,269.7
        C 575.8,311.3 589.0,381.9 571.4,432.5
        C 557.0,474.1 516.6,496.0 472.1,496.0
        C 438.5,496.0 411.3,485.7 391.7,470.1
        C 379.4,450.5 374.1,425.2 374.1,397.0
        C 373.5,317.6 421.7,239.9 488.4,239.9 Z"/>
      <use xlink:href="#upper-left-pad" fill="none" stroke="url(#outline)" stroke-width="22"/>
      <g fill="url(#gloss)">
        <path d="M 410.6,329.0
          C 416.1,307.6 435.3,279.6 452.7,271.2
          C 465.5,264.9 477.4,269.4 480.3,280.3
          C 483.7,292.9 470.0,306.3 458.5,322.3
          C 447.2,338.1 439.7,356.3 425.9,356.0
          C 412.6,355.7 406.8,344.0 410.6,329.0 Z"/>
        <ellipse cx="413.5" cy="388.3" rx="14.5" ry="17.0" transform="rotate(15 413.5 388.3)"/>
      </g>
    </g>

    <g id="upper-right">
      <use xlink:href="#upper-right-pad" fill="url(#depth)"/>
      <path fill="url(#mint)" d="M 765.4,239.9
        C 794.0,239.9 819.8,255.2 839.4,278.1
        C 856.8,315.6 865.5,374.5 846.8,422.8
        C 831.0,463.7 794.4,494.2 745.9,494.2
        C 715.1,494.2 692.0,485.9 670.1,467.9
        C 656.6,449.8 650.0,426.8 650.0,400.6
        C 650.0,322.3 699.4,239.9 765.4,239.9 Z"/>
      <use xlink:href="#upper-right-pad" fill="none" stroke="url(#outline)" stroke-width="22"/>
      <g fill="url(#gloss)">
        <path d="M 696.1,315.8
          C 705.9,294.8 731.4,266.7 749.5,265.4
          C 763.9,264.1 773.4,273.1 769.1,286.3
          C 765.7,296.8 752.0,307.3 739.5,321.6
          C 727.6,335.2 718.8,346.6 706.8,343.0
          C 694.2,339.7 690.5,329.7 696.1,315.8 Z"/>
        <ellipse cx="689.1" cy="373.2" rx="14.6" ry="16.7" transform="rotate(18 689.1 373.2)"/>
      </g>
    </g>

    <g id="lower-left">
      <use xlink:href="#lower-left-pad" fill="url(#depth)"/>
      <path fill="url(#mint)" d="M 275.6,454.1
        C 298.3,454.1 320.5,466.5 337.6,485.0
        C 357.5,518.7 375.7,561.1 367.0,607.6
        C 359.4,649.1 326.0,680.4 283.9,686.5
        C 253.4,690.9 226.0,682.6 208.4,670.8
        C 190.3,646.0 182.4,613.8 182.4,576.3
        C 182.4,515.6 223.3,454.1 275.6,454.1 Z"/>
      <use xlink:href="#lower-left-pad" fill="none" stroke="url(#outline)" stroke-width="22"/>
      <g fill="url(#gloss)">
        <path d="M 208.4,536.6
          C 211.6,518.1 223.5,495.6 237.2,487.2
          C 250.4,478.9 263.5,485.4 265.4,497.2
          C 267.5,509.2 256.0,525.2 248.9,543.2
          C 242.2,560.4 235.5,572.5 221.6,570.1
          C 208.7,567.9 205.2,554.9 208.4,536.6 Z"/>
        <ellipse cx="219.2" cy="602.7" rx="13.8" ry="16.6" transform="rotate(-7 219.2 602.7)"/>
      </g>
    </g>

    <g id="lower-right">
      <use xlink:href="#lower-right-pad" fill="url(#depth)"/>
      <path fill="url(#mint)" d="M 976.2,454.1
        C 999.4,454.1 1021.5,466.4 1037.8,488.0
        C 1053.4,522.5 1060.1,563.9 1043.7,606.7
        C 1028.4,647.1 998.4,681.8 952.5,682.0
        C 915.3,683.0 881.4,666.3 861.5,638.7
        C 854.1,620.9 855.7,601.0 860.8,580.0
        C 874.8,522.4 929.8,454.1 976.2,454.1 Z"/>
      <use xlink:href="#lower-right-pad" fill="none" stroke="url(#outline)" stroke-width="22"/>
      <g fill="url(#gloss)">
        <path d="M 908.4,523.9
          C 918.7,503.6 944.0,480.9 961.3,478.5
          C 975.8,476.3 984.3,485.1 979.9,497.6
          C 976.0,509.0 960.8,521.0 947.4,534.1
          C 935.0,546.3 925.0,554.8 914.9,549.3
          C 904.6,543.8 902.3,536.1 908.4,523.9 Z"/>
        <ellipse cx="897.0" cy="577.1" rx="14.1" ry="16.3" transform="rotate(22 897 577.1)"/>
      </g>
    </g>

    <g id="central-pad">
      <use xlink:href="#main-pad" fill="url(#depth)"/>
      <path fill="url(#mint)" d="M 624.6,556.9
        C 558.5,556.9 509.3,595.2 471.9,652.5
        C 448.5,688.3 428.1,706.9 396.3,733.7
        C 353.4,769.8 330.7,810.1 330.7,858.6
        C 330.7,889.7 338.5,917.6 353.3,940.8
        C 381.8,963.5 414.1,970.4 451.8,964.0
        C 515.9,953.4 550.6,915.3 614.6,915.3
        C 669.8,915.3 704.5,943.6 758.5,943.6
        C 824.1,943.6 866.0,897.1 872.1,833.1
        C 876.6,785.9 856.8,746.0 829.5,711.7
        C 809.2,694.0 795.5,678.5 779.8,654.8
        C 742.7,594.1 690.7,556.9 624.6,556.9 Z"/>
      <use xlink:href="#main-pad" fill="none" stroke="url(#outline)" stroke-width="22"/>
      <g id="central-highlights" fill="url(#gloss)">
        <path d="M 484.7,666.2
          C 497.4,640.8 535.8,604.0 562.4,596.3
          C 581.2,590.8 596.1,598.0 598.2,611.2
          C 601.2,627.8 580.4,643.5 559.6,659.4
          C 538.6,675.5 520.0,700.8 503.8,701.7
          C 484.1,702.7 475.6,689.0 484.7,666.2 Z"/>
        <path d="M 390.9,757.5
          C 403.7,738.7 430.5,719.2 447.7,714.7
          C 462.0,711.0 474.2,718.5 475.5,730.1
          C 477.5,744.9 461.5,754.3 445.1,766.8
          C 427.4,780.3 412.8,794.3 399.8,789.2
          C 386.8,784.3 383.8,771.3 390.9,757.5 Z"/>
      </g>
      <path id="central-heart" fill="url(#heart-fill)" d="M 625.7,871.5
        C 601.2,856.1 568.5,829.8 555.1,806.3
        C 542.5,784.1 548.2,762.6 564.9,751.0
        C 585.4,737.0 610.5,746.4 625.7,767.9
        C 640.8,746.3 666.7,737.0 687.2,751.0
        C 704.3,762.7 709.3,784.8 696.5,807.3
        C 682.3,832.1 649.8,857.2 625.7,871.5 Z"/>
    </g>
  </g>

  <g id="decorations">
    <path id="upper-sparkle" fill="url(#sparkle-fill)" d="M 235.0,296.4
      C 235.5,292.5 240.2,291.8 241.5,296.0
      C 249.0,319.6 258.0,329.2 283.9,332.1
      C 288.8,332.6 288.8,337.7 284.0,339.1
      C 259.6,346.1 253.0,356.5 249.7,384.4
      C 249.2,389.4 244.0,389.5 242.8,384.8
      C 235.1,359.6 226.8,350.4 202.4,348.0
      C 197.5,347.5 197.0,342.4 201.8,340.9
      C 225.4,333.5 232.0,323.3 235.0,296.4 Z"/>
    <path id="upper-heart" fill="url(#small-heart-fill)" d="M 970.1,391.8
      C 958.6,380.1 943.1,364.7 941.3,351.5
      C 939.8,339.5 946.5,330.3 956.0,329.0
      C 966.1,327.5 974.3,333.6 978.8,343.7
      C 986.1,335.0 996.3,333.0 1005.0,338.1
      C 1014.6,343.8 1016.5,354.8 1010.0,365.2
      C 1002.5,377.4 983.2,386.1 970.1,391.8 Z"/>
    <path id="lower-heart" fill="url(#small-heart-fill)" d="M 235.8,841.2
      C 221.9,835.6 202.7,827.2 196.8,815.2
      C 191.5,804.4 195.2,794.0 204.5,790.1
      C 212.8,786.5 221.2,789.6 227.5,796.6
      C 232.0,786.4 240.3,780.1 249.9,782.6
      C 260.6,785.1 265.8,795.3 261.2,807.0
      C 256.8,819.2 244.7,833.4 235.8,841.2 Z"/>
    <path id="lower-sparkle" fill="url(#sparkle-fill)" d="M 1009.6,804.9
      C 1010.6,800.2 1015.1,800.2 1016.2,804.9
      C 1022.4,830.7 1030.8,839.3 1053.8,844.3
      C 1058.7,845.4 1058.7,849.8 1053.7,851.1
      C 1029.2,857.4 1022.0,866.2 1015.9,891.7
      C 1014.8,896.4 1010.4,896.5 1009.3,891.7
      C 1003.5,866.1 996.4,857.6 973.1,851.3
      C 968.5,850.0 968.3,845.6 973.1,844.5
      C 996.4,839.4 1003.9,830.8 1009.6,804.9 Z"/>
  </g>
</svg>
